<?xml version="1.0" encoding="UTF-8"?><svg id="a" xmlns="http://www.w3.org/2000/svg" width="928.06" height="188.85" viewBox="0 0 928.06 188.85"><path d="M117.25,15.35l-4.79,32.4-55.12,21.7s-2.37.94-3.44,1.58c-3.19,1.91-5.87,4.54-7.9,7.64-.76,1.17-2.1,6.01-2.68,7.47l-1.15,5.39L.86,107.58l1.82-10.56-.06.02,4.18-25.13c.8-4.82,2.9-9.35,6.15-13.02,1.01-1.15,2.12-2.2,3.28-2.97.3-.2.6-.38.9-.54.11-.06.22-.11.33-.17l4.48-1.77L117.25,15.35Z" style="fill:#61b0ff;"/><polygon points="118.64 6.43 117.73 11.49 77.73 27.21 81.06 6.45 118.64 6.43" style="fill:#00629f;"/><path d="M19.24,55.59c-.11.06-.23.11-.34.17v-.03s.34-.14.34-.14Z" style="fill:#61b0ff;"/><polygon points="55.96 6.6 51.1 36.49 11.47 52.31 19.53 6.6 55.96 6.6" style="fill:#00629f;"/><path d="M111.66,53.71l-9.14,54.33c-.01.08-.03.16-.05.24-4.27,22.33-26.64,27.38-53.06,27.38h-5.76c-15.46,0-32.37-.38-40.06-6.29-2.51-2.32-3.76-6.2-3.58-10.65.08-1.92.42-3.94,1.03-5.99.02-.06.03-.12.05-.18l41.15-15.22-.72,3.88c-.11.61-.16,1.17-.14,1.7h0c0,.3.04.58.08.85h0c.05.34.14.65.25.95,1.08,2.95,4.66,4.22,9.1,4.22h1.29c5.92,0,12.62-2.23,13.63-7.7l4.99-31.34,40.92-16.17Z" style="fill:#00629f;"/><rect x="144.32" y="21.95" width="783.74" height="98.56" style="fill:none;"/><path d="M172.84,26.66v52.08c0,5.21,1.28,9.22,3.84,12.03,2.56,2.81,6.32,4.22,11.28,4.22s8.76-1.4,11.41-4.22c2.65-2.81,3.97-6.82,3.97-12.03V26.66h21.2v51.96c0,7.77-1.65,14.34-4.96,19.72-3.31,5.37-7.75,9.42-13.33,12.15-5.58,2.73-11.8,4.09-18.66,4.09s-13-1.34-18.41-4.03c-5.42-2.69-9.69-6.74-12.83-12.15-3.14-5.41-4.71-12.01-4.71-19.78V26.66h21.2Z" style="fill:#00629f;"/><path d="M263.73,97.34h27.78v16.37h-48.98V26.66h21.2v70.68Z" style="fill:#00629f;"/><path d="M367.39,26.66v16.99h-23.06v70.06h-21.2V43.65h-23.06v-16.99h67.33Z" style="fill:#00629f;"/><path d="M425.55,113.71l-18.1-32.86h-5.08v32.86h-21.2V26.66h35.59c6.86,0,12.71,1.2,17.55,3.6,4.84,2.4,8.45,5.68,10.85,9.86,2.4,4.18,3.6,8.83,3.6,13.95,0,5.79-1.63,10.95-4.9,15.5-3.27,4.55-8.08,7.77-14.45,9.67l20.09,34.47h-23.93ZM402.36,65.85h13.14c3.88,0,6.8-.95,8.74-2.85,1.94-1.9,2.91-4.59,2.91-8.06s-.97-5.91-2.91-7.81c-1.94-1.9-4.86-2.85-8.74-2.85h-13.14v21.58Z" style="fill:#00629f;"/><path d="M519.29,98.33h-32.49l-5.21,15.38h-22.2l31.5-87.05h24.55l31.5,87.05h-22.44l-5.21-15.38ZM513.83,81.96l-10.79-31.87-10.66,31.87h21.45Z" style="fill:#00629f;"/><path d="M633.37,113.71l-18.1-32.86h-5.08v32.86h-21.2V26.66h35.59c6.86,0,12.71,1.2,17.55,3.6,4.84,2.4,8.45,5.68,10.85,9.86,2.4,4.18,3.6,8.83,3.6,13.95,0,5.79-1.63,10.95-4.9,15.5-3.27,4.55-8.08,7.77-14.45,9.67l20.09,34.47h-23.93ZM610.18,65.85h13.14c3.88,0,6.8-.95,8.74-2.85,1.94-1.9,2.91-4.59,2.91-8.06s-.97-5.91-2.91-7.81c-1.94-1.9-4.86-2.85-8.74-2.85h-13.14v21.58Z" style="fill:#00629f;"/><path d="M694.13,43.65v17.61h28.4v16.37h-28.4v19.1h32.12v16.99h-53.32V26.66h53.32v16.99h-32.12Z" style="fill:#00629f;"/><path d="M805.97,68.51c-2.32,4.18-5.87,7.54-10.66,10.11-4.79,2.56-10.75,3.84-17.86,3.84h-13.14v31.25h-21.2V26.66h34.35c6.94,0,12.81,1.2,17.61,3.6,4.79,2.4,8.39,5.7,10.79,9.92,2.4,4.22,3.6,9.05,3.6,14.51,0,5.04-1.16,9.65-3.47,13.83ZM784.89,62.75c1.98-1.9,2.98-4.59,2.98-8.06s-.99-6.16-2.98-8.06c-1.98-1.9-5-2.85-9.05-2.85h-11.53v21.82h11.53c4.05,0,7.07-.95,9.05-2.85Z" style="fill:#00629f;"/><path d="M842.24,108.87c-6.82-3.8-12.24-9.11-16.24-15.93-4.01-6.82-6.01-14.49-6.01-23s2-16.16,6.01-22.94c4.01-6.78,9.42-12.07,16.24-15.87,6.82-3.8,14.32-5.7,22.51-5.7s15.69,1.9,22.51,5.7c6.82,3.8,12.19,9.09,16.12,15.87,3.92,6.78,5.89,14.43,5.89,22.94s-1.98,16.18-5.95,23-9.34,12.13-16.12,15.93c-6.78,3.8-14.26,5.7-22.44,5.7s-15.69-1.9-22.51-5.7ZM881.43,88.29c4.17-4.63,6.26-10.75,6.26-18.35s-2.09-13.83-6.26-18.41c-4.18-4.59-9.73-6.88-16.68-6.88s-12.63,2.27-16.8,6.82c-4.17,4.55-6.26,10.71-6.26,18.48s2.09,13.83,6.26,18.41c4.17,4.59,9.78,6.88,16.8,6.88s12.5-2.31,16.68-6.94Z" style="fill:#00629f;"/></svg>